<?xml version="1.0" standalone="no"?><!DOCTYPE svg PUBLIC "-//W3C//DTD SVG 1.1//EN" "http://www.w3.org/Graphics/SVG/1.1/DTD/svg11.dtd"><svg class="icon" height="512" viewBox="0 0 1024 1024" version="1.1" xmlns="http://www.w3.org/2000/svg"><path d="M748.57816 682.553421h130.583081c8.480138 0 15.349593 6.870478 15.349593 15.349593s-6.870478 15.349593-15.349593 15.349593H748.57816M359.610264 320.530201H148.531871c-8.479115 0-15.349593 6.870478-15.349593 15.349593s6.870478 15.349593 15.349593 15.349592h211.078393" fill="#76D9F4" /><path d="M98.087992 448.443475m-26.622334 0a26.622334 26.622334 0 1 0 53.244668 0 26.622334 26.622334 0 1 0-53.244668 0Z" fill="#0CB0C1" /><path d="M857.022011 791.153838m-26.622334 0a26.622334 26.622334 0 1 0 53.244668 0 26.622334 26.622334 0 1 0-53.244668 0Z" fill="#0CB0C1" /><path d="M869.729427 226.007407c12.754488 16.746406-6.17463 35.675524-22.921035 22.921036-12.754488-16.745383 6.17463-35.675524 22.921035-22.921036zM234.907101 249.747087c12.754488 16.746406-6.17463 35.675524-22.921036 22.921036-12.754488-16.746406 6.175653-35.675524 22.921036-22.921036zM936.150186 583.745021c1.289366 10.234085-7.316639 18.84009-17.550724 17.550724-6.972808-0.87902-12.604062-6.509251-13.48206-13.482059-1.289366-10.234085 7.316639-18.84009 17.550725-17.550724 6.972808 0.877997 12.603039 6.509251 13.482059 13.482059zM115.634624 800.097534c1.289366 10.234085-7.316639 18.84009-17.550725 17.550724-6.972808-0.87902-12.604062-6.509251-13.482059-13.482059-1.289366-10.234085 7.316639-18.84009 17.550725-17.550724 6.972808 0.877997 12.603039 6.508227 13.482059 13.482059zM96.113011 351.23041H59.21259c-8.479115 0-15.349593-6.870478-15.349593-15.349593 0-8.480138 6.870478-15.349593 15.349593-15.349593h36.900421c8.479115 0 15.349593 6.870478 15.349593 15.349593s-6.870478 15.349593-15.349593 15.349593zM963.764104 713.252607H926.863682c-8.479115 0-15.349593-6.870478-15.349593-15.349593 0-8.480138 6.870478-15.349593 15.349593-15.349593h36.900422c8.479115 0 15.349593 6.870478 15.349593 15.349593s-6.870478 15.349593-15.349593 15.349593z" fill="#76D9F4" /><path d="M830.399677 834.446853c0 7.265474-5.89015 13.155624-13.155624 13.155625H318.091662c-7.265474 0-13.155624-5.89015-13.155625-13.155625V493.814826c0-7.265474 5.89015-13.155624 13.155625-13.155625h499.151367c7.265474 0 13.155624 5.89015 13.155625 13.155625v340.632027z" fill="#FFFFFF" /><path d="M817.244053 860.812337H318.092685c-14.538111 0-26.366508-11.827373-26.366507-26.365484V493.814826c0-14.538111 11.828396-26.365484 26.366507-26.365485h499.151368c14.538111 0 26.366508 11.827373 26.366507 26.365485V834.447876c-0.001023 14.538111-11.828396 26.364461-26.366507 26.364461z m-0.054236-366.997511l-499.097132 0.054235 0.054235 340.577792 499.043921-0.055259v-340.576768z" fill="#333333" /><path d="M316.862671 488.475214h484.049415v329.300958H316.862671z" fill="#7DE6DC" /><path d="M565.715389 548.856419c32.923854 0 64.557318-33.777291 69.629847-60.19701h6.365988c5.278213 26.419719 33.645284 57.904805 67.947531 57.904804s62.668295-31.485085 67.947532-57.904804h6.365988c3.824095 26.419719 19.766183 47.042409 41.303708 55.460126 50.194192 19.61678 100.809987-26.578332 86.87358-78.635965l-5.412267-20.219507L850.218048 228.767264c-8.17417-30.535457-35.842323-57.146535-67.453275-57.146535H340.65454c-24.581861 0-46.097898 21.88852-52.454676 45.63434l-59.599399 225.321792-5.412267 21.563108c-13.936407 52.058656 36.679387 98.925057 86.87358 79.308277 21.537526-8.417717 37.479613-28.368094 41.303708-54.787814h6.365988c5.278213 26.419719 33.645284 57.904805 67.947532 57.904805s62.668295-31.485085 67.947531-57.904805h6.365988c5.072529 26.419719 32.218796 60.195987 65.724911 60.195987" fill="#FFFFFF" /><path d="M565.715389 562.066279c-31.18321-0.001023-55.926754-22.208814-69.134567-45.780673-14.314007 23.763217-40.905642 43.48949-70.903863 43.48949-29.252231 0-55.266721-18.760273-69.815065-41.727356-8.742105 17.303085-23.023366 30.680766-40.993647 37.703717-27.927049 10.914584-58.008158 5.434779-80.467683-14.659885-22.60995-20.230764-31.801287-50.979068-24.001646-80.267115l5.429662-21.624507 59.5994-225.321791c7.204076-26.90886 32.505321-55.467289 65.225537-55.46729h442.110233c18.093077 0 36.291554 7.251148 51.245128 20.418029 13.934361 12.269441 24.221658 28.791743 28.968775 46.52257L919.516344 441.928085l5.392824 20.139689c7.803733 29.148877-1.280156 59.721173-23.704889 79.785138-22.13002 19.803022-53.066613 25.385157-80.737835 14.570857-18.010189-7.039323-32.32522-20.620643-41.072441-38.251186-14.562671 22.911826-40.534182 41.602513-69.735248 41.602513-30.228465 0-56.999179-20.032242-71.232344-44.040028-4.858658 8.05649-11.155061 15.829524-18.464537 22.61302-16.483416 15.294334-35.747155 23.718191-54.246485 23.718191z m-82.922595-86.61673h28.112268l2.058892 10.719133c3.966335 20.659529 25.953092 49.475831 52.751435 49.475831v0.001023c24.954345 0 52.469002-27.668153 56.656371-49.476854l2.058892-10.719133h28.112268l2.122337 10.621919c3.943822 19.74367 26.773783 47.282886 54.992475 47.282886 28.219715 0 51.049676-27.539216 54.993498-47.282886l2.122338-10.621919h28.632107l1.639336 11.317767c3.087315 21.328771 15.437597 38.169321 33.037441 45.049009 18.61394 7.275707 38.616506 3.666506 53.504588-9.653871 15.184841-13.585413 21.090341-33.497928 15.799848-53.263088l-5.41329-20.219507-56.538691-216.576617c-7.206122-26.916023-30.719652-47.273676-54.67218-47.273676H340.65454c-18.84009 0-34.977629 18.223037-39.694047 35.840276L241.391792 445.876l-5.443989 21.680788c-5.257747 19.640316 0.899486 40.272215 16.070001 53.846373 14.878872 13.313214 34.780131 16.95516 53.233412 9.741875 17.665335-6.904247 30.016641-23.493064 33.039487-44.376697l1.638313-11.317766h28.632108l2.122337 10.621918c3.943822 19.74367 26.773783 47.282886 54.993498 47.282886 28.218692 0 51.048653-27.539216 54.992475-47.282886l2.12336-10.622942z" fill="#333333" /><path d="M203.554022 850.538343h728.22767" fill="#FFFFFF" /><path d="M931.781692 863.748203H203.554022c-7.29515 0-13.20986-5.913687-13.209859-13.20986s5.91471-13.20986 13.209859-13.20986h728.226647c7.296173 0 13.20986 5.913687 13.209859 13.20986s-5.913687 13.20986-13.208836 13.20986z" fill="#333333" /><path d="M402.369114 566.422494c0 84.192517-132.200928 226.982618-167.311587 263.421528a11.749602 11.749602 0 0 1-16.953114 0c-35.109636-36.43891-167.310563-179.229011-167.310563-263.421528 0-97.085152 78.70248-175.787632 175.787632-175.787632s175.787632 78.70248 175.787632 175.787632z" fill="#FFFFFF" /><path d="M226.581482 840.036151c-5.02341 0-9.716292-1.998517-13.21293-5.628184-39.680744-41.180911-169.152515-182.212972-169.152514-267.985473 0-100.556207 81.809237-182.365444 182.365444-182.365445 100.55723 0 182.365444 81.809237 182.365444 182.365445 0 85.771479-129.470747 226.804563-169.152515 267.985473-3.496637 3.628644-8.188496 5.628184-13.212929 5.628184z m0-442.823477c-93.301989 0-169.208796 75.906807-169.208797 169.208796 0 33.923624 23.931039 84.312244 69.205175 145.71471 37.521568 50.887994 79.81993 96.076172 96.264461 113.141849a5.157463 5.157463 0 0 0 3.739161 1.599428 5.161556 5.161556 0 0 0 3.740184-1.599428c16.444531-17.066701 58.743916-62.254879 96.264461-113.141849 45.275159-61.403488 69.205175-111.791086 69.205174-145.71471 0-93.300966-75.906807-169.208796-169.209819-169.208796z" fill="#333333" /><path d="M214.465536 563.366901m-58.498322 0a58.498322 58.498322 0 1 0 116.996645 0 58.498322 58.498322 0 1 0-116.996645 0Z" fill="#F7D54A" /><path d="M226.581482 637.7234c-41.000809 0-74.357522-33.356712-74.357522-74.357522s33.356712-74.357522 74.357522-74.357522 74.358545 33.356712 74.358545 74.357522c-0.001023 41.001833-33.357735 74.357522-74.358545 74.357522z m0-135.558396c-33.746592 0-61.201897 27.454282-61.201897 61.201897s27.455305 61.20292 61.201897 61.202921c33.747615 0 61.201897-27.455305 61.201897-61.202921s-27.455305-61.201897-61.201897-61.201897z" fill="#333333" /><path d="M638.428458 316.930209h-37.254486v-39.683814c0-7.265474-5.89015-13.155624-13.155624-13.155625h-38.270629c-7.265474 0-13.155624 5.89015-13.155624 13.155625v39.683814h-39.683815c-7.265474 0-13.155624 5.89015-13.155624 13.155625v38.270628c0 7.265474 5.89015 13.155624 13.155624 13.155625h39.683815v27.941376c0 7.265474 5.89015 13.155624 13.155624 13.155624h38.270629c7.265474 0 13.155624-5.89015 13.155624-13.155624V381.512087h37.254486c7.265474 0 13.155624-5.89015 13.155624-13.155625v-38.270628c0-7.265474-5.89015-13.155624-13.155624-13.155625z" fill="#EE6A56" /></svg>